<?xml version="1.0" encoding="UTF-8" standalone="no"?>
<!-- Created with Inkscape (http://www.inkscape.org/) -->

<svg
   version="1.1"
   id="svg1"
   width="447.29868"
   height="87.694"
   viewBox="0 0 447.29868 87.694"
   sodipodi:docname="Logo_extended.ai"
   xmlns:inkscape="http://www.inkscape.org/namespaces/inkscape"
   xmlns:sodipodi="http://sodipodi.sourceforge.net/DTD/sodipodi-0.dtd"
   xmlns="http://www.w3.org/2000/svg"
   xmlns:svg="http://www.w3.org/2000/svg">
  <defs
     id="defs1">
    <clipPath
       clipPathUnits="userSpaceOnUse"
       id="clipPath3">
      <path
         d="M 0,65.771 H 335.474 V 0 H 0 Z"
         transform="translate(-121.96791,-36.276201)"
         id="path3" />
    </clipPath>
    <clipPath
       clipPathUnits="userSpaceOnUse"
       id="clipPath5">
      <path
         d="M 0,65.771 H 335.474 V 0 H 0 Z"
         transform="translate(-130.7755,-50.637101)"
         id="path5" />
    </clipPath>
    <clipPath
       clipPathUnits="userSpaceOnUse"
       id="clipPath7">
      <path
         d="M 0,65.771 H 335.474 V 0 H 0 Z"
         transform="translate(-160.1916,-35.247901)"
         id="path7" />
    </clipPath>
    <clipPath
       clipPathUnits="userSpaceOnUse"
       id="clipPath9">
      <path
         d="M 0,65.771 H 335.474 V 0 H 0 Z"
         transform="translate(-174.7414,-32.576501)"
         id="path9" />
    </clipPath>
    <clipPath
       clipPathUnits="userSpaceOnUse"
       id="clipPath11">
      <path
         d="M 0,65.771 H 335.474 V 0 H 0 Z"
         transform="translate(-195.7296,-47.190301)"
         id="path11" />
    </clipPath>
    <clipPath
       clipPathUnits="userSpaceOnUse"
       id="clipPath13">
      <path
         d="M 0,65.771 H 335.474 V 0 H 0 Z"
         transform="translate(-220.32631,-32.359701)"
         id="path13" />
    </clipPath>
    <clipPath
       clipPathUnits="userSpaceOnUse"
       id="clipPath15">
      <path
         d="M 0,65.771 H 335.474 V 0 H 0 Z"
         transform="translate(-239.43861,-36.276201)"
         id="path15" />
    </clipPath>
    <clipPath
       clipPathUnits="userSpaceOnUse"
       id="clipPath17">
      <path
         d="M 0,65.771 H 335.474 V 0 H 0 Z"
         transform="translate(-264.4279,-50.242501)"
         id="path17" />
    </clipPath>
    <clipPath
       clipPathUnits="userSpaceOnUse"
       id="clipPath19">
      <path
         d="M 0,65.771 H 335.474 V 0 H 0 Z"
         transform="translate(-270.5773,-32.633701)"
         id="path19" />
    </clipPath>
    <clipPath
       clipPathUnits="userSpaceOnUse"
       id="clipPath21">
      <path
         d="M 0,65.771 H 335.474 V 0 H 0 Z"
         transform="translate(-289.65051,-46.848501)"
         id="path21" />
    </clipPath>
    <clipPath
       clipPathUnits="userSpaceOnUse"
       id="clipPath23">
      <path
         d="M 0,65.771 H 335.474 V 0 H 0 Z"
         transform="translate(-316.25701,-35.359701)"
         id="path23" />
    </clipPath>
    <clipPath
       clipPathUnits="userSpaceOnUse"
       id="clipPath25">
      <path
         d="M 0,65.771 H 335.474 V 0 H 0 Z"
         transform="translate(-331.47571,-32.359701)"
         id="path25" />
    </clipPath>
    <clipPath
       clipPathUnits="userSpaceOnUse"
       id="clipPath27">
      <path
         d="M 0,65.771 H 335.474 V 0 H 0 Z"
         transform="translate(-112.80681,-17.3949)"
         id="path27" />
    </clipPath>
    <clipPath
       clipPathUnits="userSpaceOnUse"
       id="clipPath29">
      <path
         d="M 0,65.771 H 335.474 V 0 H 0 Z"
         transform="translate(-119.91321,-18.8182)"
         id="path29" />
    </clipPath>
    <clipPath
       clipPathUnits="userSpaceOnUse"
       id="clipPath31">
      <path
         d="M 0,65.771 H 335.474 V 0 H 0 Z"
         transform="translate(-128.93961,-17.3949)"
         id="path31" />
    </clipPath>
    <clipPath
       clipPathUnits="userSpaceOnUse"
       id="clipPath33">
      <path
         d="M 0,65.771 H 335.474 V 0 H 0 Z"
         transform="translate(-132.0382,-18.579)"
         id="path33" />
    </clipPath>
    <clipPath
       clipPathUnits="userSpaceOnUse"
       id="clipPath35">
      <path
         d="M 0,65.771 H 335.474 V 0 H 0 Z"
         transform="translate(-143.95821,-22.731801)"
         id="path35" />
    </clipPath>
    <clipPath
       clipPathUnits="userSpaceOnUse"
       id="clipPath37">
      <path
         d="M 0,65.771 H 335.474 V 0 H 0 Z"
         transform="translate(-150.672,-17.3949)"
         id="path37" />
    </clipPath>
    <clipPath
       clipPathUnits="userSpaceOnUse"
       id="clipPath39">
      <path
         d="M 0,65.771 H 335.474 V 0 H 0 Z"
         transform="translate(-156.1408,-18.1444)"
         id="path39" />
    </clipPath>
    <clipPath
       clipPathUnits="userSpaceOnUse"
       id="clipPath41">
      <path
         d="M 0,65.771 H 335.474 V 0 H 0 Z"
         transform="translate(-164.8849,-22.731801)"
         id="path41" />
    </clipPath>
    <clipPath
       clipPathUnits="userSpaceOnUse"
       id="clipPath43">
      <path
         d="M 0,65.771 H 335.474 V 0 H 0 Z"
         id="path43" />
    </clipPath>
    <clipPath
       clipPathUnits="userSpaceOnUse"
       id="clipPath45">
      <path
         d="M 0,65.771 H 335.474 V 0 H 0 Z"
         transform="translate(-181.2238,-17.3949)"
         id="path45" />
    </clipPath>
    <clipPath
       clipPathUnits="userSpaceOnUse"
       id="clipPath47">
      <path
         d="M 0,65.771 H 335.474 V 0 H 0 Z"
         transform="translate(-191.0734,-22.731801)"
         id="path47" />
    </clipPath>
    <clipPath
       clipPathUnits="userSpaceOnUse"
       id="clipPath49">
      <path
         d="M 0,65.771 H 335.474 V 0 H 0 Z"
         transform="translate(-201.3781,-16.5004)"
         id="path49" />
    </clipPath>
    <clipPath
       clipPathUnits="userSpaceOnUse"
       id="clipPath51">
      <path
         d="M 0,65.771 H 335.474 V 0 H 0 Z"
         transform="translate(-208.03531,-16.5004)"
         id="path51" />
    </clipPath>
    <clipPath
       clipPathUnits="userSpaceOnUse"
       id="clipPath53">
      <path
         d="M 0,65.771 H 335.474 V 0 H 0 Z"
         transform="translate(-196.6642,-18.732801)"
         id="path53" />
    </clipPath>
    <clipPath
       clipPathUnits="userSpaceOnUse"
       id="clipPath55">
      <path
         d="M 0,65.771 H 335.474 V 0 H 0 Z"
         transform="translate(-217.37521,-18.732801)"
         id="path55" />
    </clipPath>
    <clipPath
       clipPathUnits="userSpaceOnUse"
       id="clipPath57">
      <path
         d="M 0,65.771 H 335.474 V 0 H 0 Z"
         transform="translate(-226.50411,-18.8182)"
         id="path57" />
    </clipPath>
    <clipPath
       clipPathUnits="userSpaceOnUse"
       id="clipPath59">
      <path
         d="M 0,65.771 H 335.474 V 0 H 0 Z"
         transform="translate(-230.45521,-22.731801)"
         id="path59" />
    </clipPath>
    <clipPath
       clipPathUnits="userSpaceOnUse"
       id="clipPath61">
      <path
         d="M 0,65.771 H 335.474 V 0 H 0 Z"
         transform="translate(-241.93471,-19.515)"
         id="path61" />
    </clipPath>
    <clipPath
       clipPathUnits="userSpaceOnUse"
       id="clipPath63">
      <path
         d="M 0,65.771 H 335.474 V 0 H 0 Z"
         transform="translate(-246.20911,-16.5004)"
         id="path63" />
    </clipPath>
    <clipPath
       clipPathUnits="userSpaceOnUse"
       id="clipPath65">
      <path
         d="M 0,65.771 H 335.474 V 0 H 0 Z"
         transform="translate(-254.257,-18.8182)"
         id="path65" />
    </clipPath>
    <clipPath
       clipPathUnits="userSpaceOnUse"
       id="clipPath67">
      <path
         d="M 0,65.771 H 335.474 V 0 H 0 Z"
         transform="translate(-258.39571,-22.731801)"
         id="path67" />
    </clipPath>
    <clipPath
       clipPathUnits="userSpaceOnUse"
       id="clipPath69">
      <path
         d="M 0,65.771 H 335.474 V 0 H 0 Z"
         transform="translate(-271.1584,-17.3949)"
         id="path69" />
    </clipPath>
    <clipPath
       clipPathUnits="userSpaceOnUse"
       id="clipPath71">
      <path
         d="M 0,65.771 H 335.474 V 0 H 0 Z"
         transform="translate(-281.008,-22.731801)"
         id="path71" />
    </clipPath>
    <clipPath
       clipPathUnits="userSpaceOnUse"
       id="clipPath73">
      <path
         d="M 0,65.771 H 335.474 V 0 H 0 Z"
         transform="translate(-287.7121,-17.3949)"
         id="path73" />
    </clipPath>
    <clipPath
       clipPathUnits="userSpaceOnUse"
       id="clipPath75">
      <path
         d="M 0,65.771 H 335.474 V 0 H 0 Z"
         transform="translate(-292.7296,-19.515)"
         id="path75" />
    </clipPath>
    <clipPath
       clipPathUnits="userSpaceOnUse"
       id="clipPath77">
      <path
         d="M 0,65.771 H 335.474 V 0 H 0 Z"
         transform="translate(-300.69841,-17.3949)"
         id="path77" />
    </clipPath>
    <clipPath
       clipPathUnits="userSpaceOnUse"
       id="clipPath79">
      <path
         d="M 0,65.771 H 335.474 V 0 H 0 Z"
         transform="translate(-306.16711,-18.1444)"
         id="path79" />
    </clipPath>
    <clipPath
       clipPathUnits="userSpaceOnUse"
       id="clipPath81">
      <path
         d="M 0,65.771 H 335.474 V 0 H 0 Z"
         transform="translate(-313.07631,-17.623401)"
         id="path81" />
    </clipPath>
    <clipPath
       clipPathUnits="userSpaceOnUse"
       id="clipPath83">
      <path
         d="M 0,65.771 H 335.474 V 0 H 0 Z"
         transform="translate(-321.21791,-18.981801)"
         id="path83" />
    </clipPath>
    <clipPath
       clipPathUnits="userSpaceOnUse"
       id="clipPath85">
      <path
         d="M 0,65.771 H 335.474 V 0 H 0 Z"
         transform="translate(-325.27651,-18.8182)"
         id="path85" />
    </clipPath>
    <clipPath
       clipPathUnits="userSpaceOnUse"
       id="clipPath87">
      <path
         d="M 0,65.771 H 335.474 V 0 H 0 Z"
         transform="translate(-334.05091,-22.7323)"
         id="path87" />
    </clipPath>
    <clipPath
       clipPathUnits="userSpaceOnUse"
       id="clipPath89">
      <path
         d="M 0,65.771 H 335.474 V 0 H 0 Z"
         id="path89" />
    </clipPath>
    <clipPath
       clipPathUnits="userSpaceOnUse"
       id="clipPath91">
      <path
         d="M 0,65.771 H 335.474 V 0 H 0 Z"
         transform="translate(-68.212102,-25.4134)"
         id="path91" />
    </clipPath>
    <clipPath
       clipPathUnits="userSpaceOnUse"
       id="clipPath93">
      <path
         d="M 0,65.771 H 335.474 V 0 H 0 Z"
         transform="translate(-39.697401,-28.418301)"
         id="path93" />
    </clipPath>
    <clipPath
       clipPathUnits="userSpaceOnUse"
       id="clipPath95">
      <path
         d="M 0,65.771 H 335.474 V 0 H 0 Z"
         transform="translate(-99.797005,-36.897301)"
         id="path95" />
    </clipPath>
    <clipPath
       clipPathUnits="userSpaceOnUse"
       id="clipPath97">
      <path
         d="M 0,65.771 H 335.474 V 0 H 0 Z"
         transform="translate(-11.779,6.0000002e-4)"
         id="path97" />
    </clipPath>
  </defs>
  <sodipodi:namedview
     id="namedview1"
     pagecolor="#ffffff"
     bordercolor="#000000"
     borderopacity="0.25"
     inkscape:showpageshadow="2"
     inkscape:pageopacity="0.0"
     inkscape:pagecheckerboard="0"
     inkscape:deskcolor="#d1d1d1">
    <inkscape:page
       x="0"
       y="0"
       inkscape:label="1"
       id="page1"
       width="447.29868"
       height="87.694"
       margin="0"
       bleed="0" />
  </sodipodi:namedview>
  <g
     id="layer-MC0"
     inkscape:groupmode="layer"
     inkscape:label="Layer 3"
     style="display:none">
    <path
       id="path1"
       d="M 0,0 H 335.474 V 65.77 H 0 Z"
       style="fill:#ffffff;fill-opacity:1;fill-rule:nonzero;stroke:none"
       transform="matrix(1.3333333,0,0,-1.3333333,0,87.694)" />
  </g>
  <g
     id="layer-MC1"
     inkscape:groupmode="layer"
     inkscape:label="Layer 1">
    <path
       id="path2"
       d="m 0,0 h -7.81 c -0.204,0 -0.389,-0.124 -0.466,-0.312 l -1.361,-3.292 c -0.078,-0.19 -0.263,-0.313 -0.467,-0.313 h -3.217 c -0.367,0 -0.613,0.377 -0.462,0.713 l 7.694,17.264 c 0.082,0.184 0.263,0.301 0.464,0.301 h 3.521 c 0.199,0 0.379,-0.117 0.461,-0.299 L 6.076,-3.204 C 6.227,-3.538 5.981,-3.917 5.615,-3.917 H 2.296 c -0.205,0 -0.389,0.123 -0.468,0.313 l -1.36,3.292 C 0.39,-0.124 0.205,0 0,0 M -1.283,3.911 -3.425,9.08 c -0.172,0.418 -0.762,0.418 -0.933,0 L -6.5,3.911 C -6.639,3.578 -6.393,3.212 -6.033,3.212 h 4.283 c 0.359,0 0.605,0.366 0.467,0.699"
       style="fill:#26338a;fill-opacity:1;fill-rule:nonzero;stroke:none"
       transform="matrix(1.3333333,0,0,-1.3333333,162.62387,39.325733)"
       clip-path="url(#clipPath3)" />
    <path
       id="path4"
       d="m 0,0 h 3.218 c 0.28,0 0.506,-0.228 0.506,-0.507 v -13.817 c 0,-0.281 0.227,-0.507 0.506,-0.507 h 8.153 c 0.278,0 0.506,-0.227 0.506,-0.506 v -2.435 c 0,-0.279 -0.228,-0.505 -0.506,-0.505 H 0 c -0.279,0 -0.506,0.226 -0.506,0.505 V -0.507 C -0.506,-0.228 -0.279,0 0,0"
       style="fill:#26338a;fill-opacity:1;fill-rule:nonzero;stroke:none"
       transform="matrix(1.3333333,0,0,-1.3333333,174.36733,20.177867)"
       clip-path="url(#clipPath5)" />
    <path
       id="path6"
       d="m 0,0 v -2.383 c 0,-0.279 -0.228,-0.505 -0.506,-0.505 h -13.14 c -0.279,0 -0.505,0.226 -0.505,0.505 v 17.265 c 0,0.281 0.226,0.507 0.505,0.507 h 12.8 c 0.28,0 0.507,-0.226 0.507,-0.507 v -2.381 c 0,-0.279 -0.227,-0.506 -0.507,-0.506 h -8.596 c -0.28,0 -0.506,-0.228 -0.506,-0.507 V 8.532 c 0,-0.28 0.226,-0.507 0.506,-0.507 h 7.473 c 0.282,0 0.507,-0.225 0.507,-0.504 V 5.243 c 0,-0.281 -0.225,-0.507 -0.507,-0.507 h -7.473 c -0.28,0 -0.506,-0.227 -0.506,-0.506 V 1.013 c 0,-0.281 0.226,-0.507 0.506,-0.507 h 8.936 C -0.228,0.506 0,0.279 0,0"
       style="fill:#26338a;fill-opacity:1;fill-rule:nonzero;stroke:none"
       transform="matrix(1.3333333,0,0,-1.3333333,213.5888,40.6968)"
       clip-path="url(#clipPath7)" />
    <path
       id="path8"
       d="M 0,0 -3.843,5.525 C -4.045,5.816 -4.476,5.814 -4.677,5.522 L -8.445,0.003 c -0.095,-0.138 -0.25,-0.22 -0.417,-0.22 h -3.597 c -0.413,0 -0.652,0.469 -0.41,0.804 l 5.965,8.195 c 0.127,0.177 0.129,0.417 0.002,0.594 l -5.639,7.885 c -0.239,0.334 0,0.799 0.411,0.799 h 3.56 c 0.164,0 0.317,-0.079 0.413,-0.213 l 3.635,-5.125 c 0.204,-0.288 0.627,-0.284 0.829,0.003 l 3.562,5.119 c 0.094,0.135 0.249,0.216 0.415,0.216 H 3.6 c 0.413,0 0.651,-0.467 0.411,-0.803 L -1.567,9.531 c -0.128,-0.177 -0.128,-0.416 0,-0.592 L 4.455,0.585 C 4.696,0.251 4.457,-0.217 4.044,-0.217 H 0.416 C 0.249,-0.217 0.095,-0.135 0,0"
       style="fill:#26338a;fill-opacity:1;fill-rule:nonzero;stroke:none"
       transform="matrix(1.3333333,0,0,-1.3333333,232.98853,44.258667)"
       clip-path="url(#clipPath9)" />
    <path
       id="path10"
       d="m 0,0 h -5.061 c -0.216,0 -0.394,0.177 -0.394,0.395 v 2.658 c 0,0.218 0.178,0.393 0.394,0.393 h 15.14 c 0.218,0 0.393,-0.175 0.393,-0.393 V 0.395 C 10.472,0.177 10.297,0 10.079,0 H 5.019 C 4.8,0 4.624,-0.177 4.624,-0.395 v -14.041 c 0,-0.219 -0.177,-0.395 -0.394,-0.395 H 0.789 c -0.219,0 -0.394,0.176 -0.394,0.395 V -0.395 C 0.395,-0.177 0.218,0 0,0"
       style="fill:#26338a;fill-opacity:1;fill-rule:nonzero;stroke:none"
       transform="matrix(1.3333333,0,0,-1.3333333,260.9728,24.7736)"
       clip-path="url(#clipPath11)" />
    <path
       id="path12"
       d="m 0,0 c -0.129,0 -0.251,0.063 -0.324,0.17 l -3.408,4.922 h -0.209 -3.288 c -0.216,0 -0.394,-0.177 -0.394,-0.394 V 0.394 C -7.623,0.177 -7.798,0 -8.016,0 h -3.442 c -0.218,0 -0.395,0.177 -0.395,0.394 v 17.49 c 0,0.217 0.177,0.392 0.395,0.392 h 7.517 c 1.62,0 3.025,-0.269 4.218,-0.808 1.192,-0.54 2.109,-1.306 2.754,-2.299 0.644,-0.99 0.966,-2.165 0.966,-3.524 C 3.997,10.288 3.67,9.116 3.018,8.134 2.443,7.268 1.657,6.581 0.66,6.073 0.442,5.963 0.364,5.692 0.505,5.492 L 3.903,0.62 C 4.086,0.357 3.898,0 3.581,0 Z m -1.277,14.008 c -0.661,0.548 -1.628,0.823 -2.898,0.823 h -3.054 c -0.216,0 -0.394,-0.176 -0.394,-0.395 V 8.854 c 0,-0.217 0.178,-0.395 0.394,-0.395 h 3.054 c 1.27,0 2.237,0.278 2.898,0.836 0.662,0.557 0.993,1.341 0.993,2.35 0,1.028 -0.331,1.815 -0.993,2.363"
       style="fill:#26338a;fill-opacity:1;fill-rule:nonzero;stroke:none"
       transform="matrix(1.3333333,0,0,-1.3333333,293.7684,44.547733)"
       clip-path="url(#clipPath13)" />
    <path
       id="path14"
       d="m 0,0 h -7.959 c -0.16,0 -0.304,-0.097 -0.364,-0.244 L -9.74,-3.673 c -0.062,-0.148 -0.206,-0.244 -0.364,-0.244 h -3.465 c -0.285,0 -0.477,0.293 -0.36,0.554 l 7.795,17.49 c 0.064,0.142 0.204,0.234 0.36,0.234 h 3.667 c 0.155,0 0.296,-0.092 0.36,-0.234 l 7.82,-17.49 C 6.189,-3.622 5.998,-3.917 5.714,-3.917 H 2.146 c -0.16,0 -0.303,0.096 -0.365,0.244 L 0.364,-0.244 C 0.302,-0.097 0.158,0 0,0 m -1.294,3.757 -2.31,5.574 c -0.133,0.324 -0.593,0.324 -0.726,0 L -6.641,3.757 C -6.747,3.496 -6.557,3.212 -6.276,3.212 h 4.618 c 0.28,0 0.471,0.284 0.364,0.545"
       style="fill:#26338a;fill-opacity:1;fill-rule:nonzero;stroke:none"
       transform="matrix(1.3333333,0,0,-1.3333333,319.25147,39.325733)"
       clip-path="url(#clipPath15)" />
    <path
       id="path16"
       d="m 0,0 v -17.489 c 0,-0.218 -0.177,-0.395 -0.395,-0.395 h -2.89 c -0.119,0 -0.231,0.054 -0.306,0.144 l -8.296,10.103 c -0.234,0.285 -0.699,0.12 -0.699,-0.249 v -9.603 c 0,-0.218 -0.176,-0.395 -0.393,-0.395 h -3.39 c -0.218,0 -0.393,0.177 -0.393,0.395 V 0 c 0,0.217 0.175,0.395 0.393,0.395 h 2.919 c 0.117,0 0.229,-0.054 0.304,-0.146 l 8.27,-10.097 c 0.233,-0.288 0.698,-0.122 0.698,0.249 V 0 c 0,0.217 0.177,0.395 0.395,0.395 h 3.388 C -0.177,0.395 0,0.217 0,0"
       style="fill:#26338a;fill-opacity:1;fill-rule:nonzero;stroke:none"
       transform="matrix(1.3333333,0,0,-1.3333333,352.57053,20.704)"
       clip-path="url(#clipPath17)" />
    <path
       id="path18"
       d="m 0,0 c -1.21,0.351 -2.208,0.797 -2.99,1.339 -0.156,0.107 -0.205,0.312 -0.129,0.483 l 1.11,2.462 c 0.102,0.223 0.376,0.295 0.581,0.162 C -0.729,3.993 0.073,3.622 0.979,3.329 2.059,2.98 3.137,2.806 4.216,2.806 c 1.202,0 2.09,0.179 2.664,0.537 0.575,0.356 0.861,0.83 0.861,1.422 0,0.434 -0.169,0.797 -0.509,1.085 C 6.894,6.135 6.457,6.366 5.928,6.542 5.396,6.715 4.678,6.906 3.773,7.115 2.38,7.445 1.239,7.776 0.353,8.107 -0.535,8.438 -1.297,8.97 -1.933,9.7 c -0.634,0.732 -0.952,1.706 -0.952,2.925 0,1.061 0.286,2.023 0.861,2.884 0.575,0.863 1.44,1.546 2.598,2.051 1.157,0.504 2.572,0.757 4.243,0.757 1.165,0 2.307,-0.141 3.42,-0.418 0.987,-0.247 1.866,-0.59 2.632,-1.026 0.171,-0.099 0.237,-0.311 0.164,-0.492 L 10.022,13.892 C 9.934,13.674 9.678,13.587 9.471,13.696 c -1.56,0.817 -3.12,1.226 -4.68,1.226 -1.184,0 -2.059,-0.192 -2.624,-0.574 -0.566,-0.383 -0.849,-0.888 -0.849,-1.515 0,-0.626 0.327,-1.092 0.98,-1.396 C 2.949,11.132 3.947,10.832 5.287,10.536 6.68,10.205 7.819,9.874 8.708,9.543 9.596,9.212 10.356,8.69 10.993,7.977 11.628,7.263 11.945,6.297 11.945,5.079 11.945,4.035 11.653,3.082 11.07,2.22 10.486,1.357 9.612,0.674 8.446,0.17 7.279,-0.336 5.86,-0.588 4.191,-0.588 2.745,-0.588 1.349,-0.391 0,0"
       style="fill:#26338a;fill-opacity:1;fill-rule:nonzero;stroke:none"
       transform="matrix(1.3333333,0,0,-1.3333333,360.76973,44.1824)"
       clip-path="url(#clipPath19)" />
    <path
       id="path20"
       d="M 0,0 V -4.042 C 0,-4.26 0.177,-4.436 0.394,-4.436 h 7.67 c 0.218,0 0.395,-0.177 0.395,-0.394 v -2.607 c 0,-0.217 -0.177,-0.395 -0.395,-0.395 H 0.394 C 0.177,-7.832 0,-8.007 0,-8.224 v -5.871 c 0,-0.218 -0.178,-0.395 -0.395,-0.395 h -3.441 c -0.217,0 -0.394,0.177 -0.394,0.395 V 3.394 c 0,0.217 0.177,0.395 0.394,0.395 H 9.188 c 0.217,0 0.394,-0.178 0.394,-0.395 V 0.789 C 9.582,0.57 9.405,0.395 9.188,0.395 H 0.394 C 0.177,0.395 0,0.217 0,0"
       style="fill:#26338a;fill-opacity:1;fill-rule:nonzero;stroke:none"
       transform="matrix(1.3333333,0,0,-1.3333333,386.20067,25.229333)"
       clip-path="url(#clipPath21)" />
    <path
       id="path22"
       d="M 0,0 V -2.607 C 0,-2.824 -0.178,-3 -0.395,-3 h -13.363 c -0.218,0 -0.394,0.176 -0.394,0.393 v 17.489 c 0,0.22 0.176,0.395 0.394,0.395 h 13.024 c 0.217,0 0.394,-0.175 0.394,-0.395 v -2.605 c 0,-0.217 -0.177,-0.394 -0.394,-0.394 h -8.821 c -0.217,0 -0.394,-0.177 -0.394,-0.395 v -3.18 c 0,-0.217 0.177,-0.394 0.394,-0.394 h 7.698 c 0.218,0 0.394,-0.176 0.394,-0.393 V 5.019 c 0,-0.219 -0.176,-0.394 -0.394,-0.394 h -7.698 c -0.217,0 -0.394,-0.178 -0.394,-0.395 V 0.789 c 0,-0.219 0.177,-0.394 0.394,-0.394 h 9.16 C -0.178,0.395 0,0.217 0,0"
       style="fill:#26338a;fill-opacity:1;fill-rule:nonzero;stroke:none"
       transform="matrix(1.3333333,0,0,-1.3333333,421.676,40.547733)"
       clip-path="url(#clipPath23)" />
    <path
       id="path24"
       d="M 0,0 C -0.128,0 -0.25,0.063 -0.324,0.17 L -3.731,5.092 H -3.94 -7.228 c -0.217,0 -0.394,-0.177 -0.394,-0.394 V 0.394 C -7.622,0.177 -7.798,0 -8.015,0 h -3.442 c -0.218,0 -0.395,0.177 -0.395,0.394 v 17.49 c 0,0.217 0.177,0.392 0.395,0.392 h 7.517 c 1.619,0 3.025,-0.269 4.218,-0.808 1.192,-0.54 2.109,-1.306 2.754,-2.299 0.644,-0.99 0.966,-2.165 0.966,-3.524 C 3.998,10.288 3.671,9.116 3.019,8.134 2.443,7.268 1.658,6.581 0.66,6.073 0.443,5.963 0.365,5.692 0.505,5.492 L 3.904,0.62 C 4.087,0.357 3.899,0 3.582,0 Z m -1.276,14.008 c -0.662,0.548 -1.628,0.823 -2.898,0.823 h -3.054 c -0.217,0 -0.394,-0.176 -0.394,-0.395 V 8.854 c 0,-0.217 0.177,-0.395 0.394,-0.395 h 3.054 c 1.27,0 2.236,0.278 2.898,0.836 0.662,0.557 0.993,1.341 0.993,2.35 0,1.028 -0.331,1.815 -0.993,2.363"
       style="fill:#26338a;fill-opacity:1;fill-rule:nonzero;stroke:none"
       transform="matrix(1.3333333,0,0,-1.3333333,441.9676,44.547733)"
       clip-path="url(#clipPath25)" />
    <path
       id="path26"
       d="m 0,0 v -1.217 h -5.076 v 6.555 h 4.954 V 4.12 H -3.568 V 2.697 h 3.043 V 1.518 H -3.568 V 0 Z"
       style="fill:#a3c9e0;fill-opacity:1;fill-rule:nonzero;stroke:none"
       transform="matrix(1.3333333,0,0,-1.3333333,150.40907,64.5008)"
       clip-path="url(#clipPath27)" />
    <path
       id="path28"
       d="M 0,0 H -0.954 V -2.641 H -2.443 V 0 h -0.974 l -1.471,-2.641 h -1.75 l 1.965,3.428 -1.843,3.127 h 1.601 l 1.47,-2.651 h 1.002 v 2.651 h 1.489 V 1.263 h 0.973 l 1.48,2.651 H 3.101 L 1.264,0.787 3.223,-2.641 H 1.47 Z"
       style="fill:#a3c9e0;fill-opacity:1;fill-rule:nonzero;stroke:none"
       transform="matrix(1.3333333,0,0,-1.3333333,159.88427,62.603067)"
       clip-path="url(#clipPath29)" />
    <path
       id="path30"
       d="m 0,0 v -1.217 h -5.075 v 6.555 h 4.953 V 4.12 H -3.568 V 2.697 h 3.044 V 1.518 H -3.568 V 0 Z"
       style="fill:#a3c9e0;fill-opacity:1;fill-rule:nonzero;stroke:none"
       transform="matrix(1.3333333,0,0,-1.3333333,171.91947,64.5008)"
       clip-path="url(#clipPath31)" />
    <path
       id="path32"
       d="M 0,0 C -0.1,-0.528 -0.252,-0.916 -0.459,-1.165 H 2.472 V 2.918 H 0.226 L 0.197,1.962 C 0.166,1.182 0.101,0.528 0,0 M 4.889,-1.165 V -3.758 H 3.484 v 1.357 h -4.626 v -1.357 h -1.403 l 0.008,2.593 h 0.263 c 0.392,0.012 0.67,0.299 0.832,0.861 0.164,0.563 0.262,1.364 0.3,2.407 l 0.075,2.05 h 5.038 v -5.318 z"
       style="fill:#a3c9e0;fill-opacity:1;fill-rule:nonzero;stroke:none"
       transform="matrix(1.3333333,0,0,-1.3333333,176.05093,62.922)"
       clip-path="url(#clipPath33)" />
    <path
       id="path34"
       d="m 0,0 v -6.554 h -1.518 v 2.689 H -4.494 V -6.554 H -6.011 V 0 h 1.517 v -2.583 h 2.976 V 0 Z"
       style="fill:#a3c9e0;fill-opacity:1;fill-rule:nonzero;stroke:none"
       transform="matrix(1.3333333,0,0,-1.3333333,191.94427,57.384933)"
       clip-path="url(#clipPath35)" />
    <path
       id="path36"
       d="m 0,0 v -1.217 h -5.076 v 6.555 h 4.954 V 4.12 H -3.568 V 2.697 h 3.043 V 1.518 H -3.568 V 0 Z"
       style="fill:#a3c9e0;fill-opacity:1;fill-rule:nonzero;stroke:none"
       transform="matrix(1.3333333,0,0,-1.3333333,200.896,64.5008)"
       clip-path="url(#clipPath37)" />
    <path
       id="path38"
       d="M 0,0 C 0,0.543 -0.358,0.814 -1.07,0.814 H -2.736 V -0.844 H -1.07 C -0.358,-0.844 0,-0.563 0,0 m -2.736,1.872 h 1.416 c 0.329,0 0.578,0.068 0.748,0.202 0.169,0.134 0.253,0.332 0.253,0.593 0,0.257 -0.086,0.455 -0.258,0.59 -0.172,0.137 -0.419,0.207 -0.743,0.207 H -2.736 Z M 1.216,0.871 c 0.213,-0.268 0.319,-0.6 0.319,-0.993 0,-0.582 -0.221,-1.033 -0.661,-1.359 -0.44,-0.324 -1.07,-0.486 -1.888,-0.486 h -3.228 v 6.554 h 3.052 c 0.761,0 1.353,-0.145 1.78,-0.441 C 1.013,3.854 1.225,3.436 1.225,2.891 1.225,2.567 1.143,2.281 0.98,2.036 0.818,1.79 0.591,1.596 0.299,1.452 0.696,1.333 1.002,1.138 1.216,0.871"
       style="fill:#a3c9e0;fill-opacity:1;fill-rule:nonzero;stroke:none"
       transform="matrix(1.3333333,0,0,-1.3333333,208.18773,63.501467)"
       clip-path="url(#clipPath39)" />
    <path
       id="path40"
       d="m 0,0 v -6.554 h -1.518 v 2.689 H -4.494 V -6.554 H -6.012 V 0 h 1.518 v -2.583 h 2.976 V 0 Z"
       style="fill:#a3c9e0;fill-opacity:1;fill-rule:nonzero;stroke:none"
       transform="matrix(1.3333333,0,0,-1.3333333,219.84653,57.384933)"
       clip-path="url(#clipPath41)" />
    <path
       id="path42"
       d="m 173.013,22.733 h 1.507 v -6.555 h -1.507 z m -2.693,-5.142 c 0.221,0.194 0.332,0.474 0.332,0.844 0,0.678 -0.418,1.019 -1.254,1.019 h -1.366 V 17.3 h 1.366 c 0.392,0 0.7,0.098 0.922,0.291 m 1.217,2.453 c 0.428,-0.354 0.642,-0.883 0.642,-1.583 0,-0.741 -0.235,-1.308 -0.707,-1.697 -0.472,-0.392 -1.135,-0.585 -1.99,-0.585 h -2.958 v 6.554 h 1.508 v -2.154 h 1.666 c 0.797,0 1.412,-0.179 1.839,-0.535"
       style="fill:#a3c9e0;fill-opacity:1;fill-rule:nonzero;stroke:none"
       transform="matrix(1.3333333,0,0,-1.3333333,0,87.694)"
       clip-path="url(#clipPath43)" />
    <path
       id="path44"
       d="m 0,0 v -1.217 h -5.075 v 6.555 h 4.953 V 4.12 H -3.568 V 2.697 h 3.044 V 1.518 H -3.568 V 0 Z"
       style="fill:#a3c9e0;fill-opacity:1;fill-rule:nonzero;stroke:none"
       transform="matrix(1.3333333,0,0,-1.3333333,241.63173,64.5008)"
       clip-path="url(#clipPath45)" />
    <path
       id="path46"
       d="m 0,0 v -6.554 h -1.507 v 5.317 H -4.465 V -6.554 H -5.973 V 0 Z"
       style="fill:#a3c9e0;fill-opacity:1;fill-rule:nonzero;stroke:none"
       transform="matrix(1.3333333,0,0,-1.3333333,254.76453,57.384933)"
       clip-path="url(#clipPath47)" />
    <path
       id="path48"
       d="m 0,0 c -0.54,0.29 -0.967,0.692 -1.274,1.207 -0.309,0.516 -0.464,1.1 -0.464,1.748 0,0.65 0.155,1.23 0.464,1.746 C -0.967,5.216 -0.54,5.619 0,5.908 0.541,6.199 1.147,6.343 1.821,6.343 2.39,6.343 2.902,6.244 3.362,6.045 3.82,5.845 4.204,5.557 4.519,5.183 L 3.544,4.284 C 3.102,4.795 2.552,5.052 1.895,5.052 1.488,5.052 1.129,4.962 0.81,4.785 0.491,4.608 0.243,4.359 0.064,4.042 -0.114,3.722 -0.203,3.359 -0.203,2.955 -0.203,2.547 -0.114,2.188 0.064,1.869 0.243,1.549 0.491,1.302 0.81,1.124 1.129,0.946 1.488,0.856 1.895,0.856 c 0.657,0 1.207,0.261 1.649,0.777 L 4.519,0.735 C 4.204,0.353 3.818,0.064 3.355,-0.137 2.896,-0.335 2.379,-0.434 1.812,-0.434 1.143,-0.434 0.541,-0.289 0,0"
       style="fill:#a3c9e0;fill-opacity:1;fill-rule:nonzero;stroke:none"
       transform="matrix(1.3333333,0,0,-1.3333333,268.50413,65.693467)"
       clip-path="url(#clipPath49)" />
    <path
       id="path50"
       d="m 0,0 c -0.54,0.29 -0.966,0.692 -1.273,1.207 -0.31,0.516 -0.465,1.1 -0.465,1.748 0,0.65 0.155,1.23 0.465,1.746 C -0.966,5.216 -0.54,5.619 0,5.908 0.541,6.199 1.147,6.343 1.821,6.343 2.39,6.343 2.902,6.244 3.362,6.045 3.82,5.845 4.205,5.557 4.519,5.183 L 3.545,4.284 C 3.102,4.795 2.552,5.052 1.895,5.052 1.489,5.052 1.13,4.962 0.811,4.785 0.491,4.608 0.244,4.359 0.065,4.042 -0.114,3.722 -0.202,3.359 -0.202,2.955 -0.202,2.547 -0.114,2.188 0.065,1.869 0.244,1.549 0.491,1.302 0.811,1.124 1.13,0.946 1.489,0.856 1.895,0.856 c 0.657,0 1.207,0.261 1.65,0.777 L 4.519,0.735 C 4.205,0.353 3.818,0.064 3.355,-0.137 2.896,-0.335 2.38,-0.434 1.812,-0.434 1.143,-0.434 0.541,-0.289 0,0"
       style="fill:#a3c9e0;fill-opacity:1;fill-rule:nonzero;stroke:none"
       transform="matrix(1.3333333,0,0,-1.3333333,277.3804,65.693467)"
       clip-path="url(#clipPath51)" />
    <path
       id="path52"
       d="M 0,0 -1.04,2.51 -2.079,0 Z M 0.478,-1.151 H -2.565 L -3.147,-2.555 H -4.701 L -1.78,4 h 1.499 L 2.65,-2.555 H 1.058 Z"
       style="fill:#a3c9e0;fill-opacity:1;fill-rule:nonzero;stroke:none"
       transform="matrix(1.3333333,0,0,-1.3333333,262.21893,62.716933)"
       clip-path="url(#clipPath53)" />
    <path
       id="path54"
       d="M 0,0 -1.039,2.51 -2.079,0 Z M 0.479,-1.151 H -2.565 L -3.146,-2.555 H -4.701 L -1.779,4 H -0.28 L 2.651,-2.555 H 1.059 Z"
       style="fill:#a3c9e0;fill-opacity:1;fill-rule:nonzero;stroke:none"
       transform="matrix(1.3333333,0,0,-1.3333333,289.8336,62.716933)"
       clip-path="url(#clipPath55)" />
    <path
       id="path56"
       d="M 0,0 H -0.954 V -2.641 H -2.443 V 0 h -0.975 l -1.471,-2.641 h -1.749 l 1.965,3.428 -1.843,3.127 h 1.601 l 1.469,-2.651 h 1.003 v 2.651 h 1.489 V 1.263 h 0.973 l 1.48,2.651 H 3.101 L 1.264,0.787 3.222,-2.641 H 1.469 Z"
       style="fill:#a3c9e0;fill-opacity:1;fill-rule:nonzero;stroke:none"
       transform="matrix(1.3333333,0,0,-1.3333333,302.00547,62.603067)"
       clip-path="url(#clipPath57)" />
    <path
       id="path58"
       d="M 0,0 H 1.508 V -4.268 L 4.635,0 H 6.059 V -6.554 H 4.561 v 4.26 L 1.434,-6.554 H 0 Z"
       style="fill:#a3c9e0;fill-opacity:1;fill-rule:nonzero;stroke:none"
       transform="matrix(1.3333333,0,0,-1.3333333,307.2736,57.384933)"
       clip-path="url(#clipPath59)" />
    <path
       id="path60"
       d="M 0,0 C 0.237,0.197 0.354,0.478 0.354,0.837 0.354,1.207 0.237,1.489 0,1.686 -0.237,1.883 -0.583,1.982 -1.039,1.982 h -1.235 v -2.278 h 1.235 C -0.583,-0.296 -0.237,-0.197 0,0 M 0.557,2.926 C 0.986,2.734 1.315,2.458 1.544,2.104 1.774,1.747 1.892,1.325 1.892,0.837 1.892,0.359 1.774,-0.062 1.544,-0.421 1.315,-0.779 0.986,-1.055 0.557,-1.244 0.129,-1.436 -0.374,-1.529 -0.954,-1.529 h -1.32 v -1.808 h -1.518 v 6.552 h 2.838 c 0.58,0 1.083,-0.095 1.511,-0.289"
       style="fill:#a3c9e0;fill-opacity:1;fill-rule:nonzero;stroke:none"
       transform="matrix(1.3333333,0,0,-1.3333333,322.5796,61.674)"
       clip-path="url(#clipPath61)" />
    <path
       id="path62"
       d="m 0,0 c -0.54,0.29 -0.966,0.692 -1.273,1.207 -0.309,0.516 -0.465,1.1 -0.465,1.748 0,0.65 0.156,1.23 0.465,1.746 C -0.966,5.216 -0.54,5.619 0,5.908 0.542,6.199 1.146,6.343 1.822,6.343 2.39,6.343 2.903,6.244 3.362,6.045 3.82,5.845 4.205,5.557 4.52,5.183 L 3.545,4.284 C 3.103,4.795 2.552,5.052 1.896,5.052 1.489,5.052 1.13,4.962 0.811,4.785 0.491,4.608 0.244,4.359 0.065,4.042 -0.113,3.722 -0.202,3.359 -0.202,2.955 -0.202,2.547 -0.113,2.188 0.065,1.869 0.244,1.549 0.491,1.302 0.811,1.124 1.13,0.946 1.489,0.856 1.896,0.856 c 0.656,0 1.207,0.261 1.649,0.777 L 4.52,0.735 C 4.205,0.353 3.819,0.064 3.356,-0.137 2.896,-0.335 2.38,-0.434 1.812,-0.434 1.144,-0.434 0.542,-0.289 0,0"
       style="fill:#a3c9e0;fill-opacity:1;fill-rule:nonzero;stroke:none"
       transform="matrix(1.3333333,0,0,-1.3333333,328.2788,65.693467)"
       clip-path="url(#clipPath63)" />
    <path
       id="path64"
       d="M 0,0 H -1.05 V -2.641 H -2.557 V 3.914 H -1.05 V 1.263 h 1.088 l 1.724,2.651 h 1.6 L 1.217,0.749 3.428,-2.641 H 1.705 Z"
       style="fill:#a3c9e0;fill-opacity:1;fill-rule:nonzero;stroke:none"
       transform="matrix(1.3333333,0,0,-1.3333333,339.00933,62.603067)"
       clip-path="url(#clipPath65)" />
    <path
       id="path66"
       d="M 0,0 H 1.507 V -4.268 L 4.634,0 H 6.058 V -6.554 H 4.561 v 4.26 L 1.434,-6.554 H 0 Z"
       style="fill:#a3c9e0;fill-opacity:1;fill-rule:nonzero;stroke:none"
       transform="matrix(1.3333333,0,0,-1.3333333,344.5276,57.384933)"
       clip-path="url(#clipPath67)" />
    <path
       id="path68"
       d="m 0,0 v -1.217 h -5.076 v 6.555 h 4.954 V 4.12 H -3.568 V 2.697 h 3.043 V 1.518 H -3.568 V 0 Z"
       style="fill:#a3c9e0;fill-opacity:1;fill-rule:nonzero;stroke:none"
       transform="matrix(1.3333333,0,0,-1.3333333,361.54453,64.5008)"
       clip-path="url(#clipPath69)" />
    <path
       id="path70"
       d="m 0,0 v -6.554 h -1.508 v 5.317 H -4.466 V -6.554 H -5.974 V 0 Z"
       style="fill:#a3c9e0;fill-opacity:1;fill-rule:nonzero;stroke:none"
       transform="matrix(1.3333333,0,0,-1.3333333,374.67733,57.384933)"
       clip-path="url(#clipPath71)" />
    <path
       id="path72"
       d="m 0,0 v -1.217 h -5.076 v 6.555 h 4.954 V 4.12 H -3.568 V 2.697 h 3.043 V 1.518 H -3.568 V 0 Z"
       style="fill:#a3c9e0;fill-opacity:1;fill-rule:nonzero;stroke:none"
       transform="matrix(1.3333333,0,0,-1.3333333,383.61613,64.5008)"
       clip-path="url(#clipPath73)" />
    <path
       id="path74"
       d="M 0,0 C 0.237,0.197 0.356,0.478 0.356,0.837 0.356,1.207 0.237,1.489 0,1.686 -0.237,1.883 -0.583,1.982 -1.039,1.982 h -1.235 v -2.278 h 1.235 C -0.583,-0.296 -0.237,-0.197 0,0 M 0.557,2.926 C 0.986,2.734 1.315,2.458 1.545,2.104 1.775,1.747 1.893,1.325 1.893,0.837 1.893,0.359 1.775,-0.062 1.545,-0.421 1.315,-0.779 0.986,-1.055 0.557,-1.244 0.129,-1.436 -0.374,-1.529 -0.954,-1.529 h -1.32 v -1.808 h -1.518 v 6.552 h 2.838 c 0.58,0 1.083,-0.095 1.511,-0.289"
       style="fill:#a3c9e0;fill-opacity:1;fill-rule:nonzero;stroke:none"
       transform="matrix(1.3333333,0,0,-1.3333333,390.30613,61.674)"
       clip-path="url(#clipPath75)" />
    <path
       id="path76"
       d="m 0,0 v -1.217 h -5.075 v 6.555 h 4.953 V 4.12 H -3.568 V 2.697 h 3.044 V 1.518 H -3.568 V 0 Z"
       style="fill:#a3c9e0;fill-opacity:1;fill-rule:nonzero;stroke:none"
       transform="matrix(1.3333333,0,0,-1.3333333,400.9312,64.5008)"
       clip-path="url(#clipPath77)" />
    <path
       id="path78"
       d="m 0,0 c 0,0.543 -0.357,0.814 -1.069,0.814 h -1.666 v -1.658 h 1.666 C -0.357,-0.844 0,-0.563 0,0 m -2.735,1.872 h 1.415 c 0.329,0 0.578,0.068 0.749,0.202 0.169,0.134 0.252,0.332 0.252,0.593 0,0.257 -0.085,0.455 -0.257,0.59 -0.173,0.137 -0.42,0.207 -0.744,0.207 H -2.735 Z M 1.217,0.871 c 0.211,-0.268 0.319,-0.6 0.319,-0.993 0,-0.582 -0.221,-1.033 -0.662,-1.359 -0.439,-0.324 -1.069,-0.486 -1.887,-0.486 h -3.23 v 6.554 h 3.054 c 0.761,0 1.353,-0.145 1.777,-0.441 C 1.013,3.854 1.225,3.436 1.225,2.891 1.225,2.567 1.144,2.281 0.981,2.036 0.819,1.79 0.592,1.596 0.299,1.452 0.697,1.333 1.003,1.138 1.217,0.871"
       style="fill:#a3c9e0;fill-opacity:1;fill-rule:nonzero;stroke:none"
       transform="matrix(1.3333333,0,0,-1.3333333,408.2228,63.501467)"
       clip-path="url(#clipPath79)" />
    <path
       id="path80"
       d="M 0,0 C 0.311,0.179 0.557,0.426 0.735,0.746 0.912,1.063 1.001,1.426 1.001,1.83 1.001,2.236 0.912,2.599 0.735,2.918 0.557,3.235 0.311,3.484 0,3.662 -0.311,3.839 -0.662,3.927 -1.05,3.927 -1.436,3.927 -1.785,3.839 -2.098,3.662 -2.41,3.484 -2.655,3.235 -2.833,2.918 -3.01,2.599 -3.101,2.236 -3.101,1.83 -3.101,1.426 -3.01,1.063 -2.833,0.746 -2.655,0.426 -2.41,0.179 -2.098,0 c 0.313,-0.177 0.662,-0.266 1.048,-0.266 0.388,0 0.739,0.089 1.05,0.266 m -2.888,-1.118 c -0.547,0.292 -0.974,0.697 -1.282,1.213 -0.31,0.515 -0.465,1.092 -0.465,1.735 0,0.644 0.155,1.222 0.465,1.738 0.308,0.515 0.735,0.919 1.282,1.212 0.546,0.294 1.159,0.441 1.838,0.441 0.682,0 1.294,-0.147 1.837,-0.441 C 1.328,4.487 1.758,4.083 2.069,3.568 2.382,3.052 2.537,2.474 2.537,1.83 2.537,1.187 2.382,0.61 2.069,0.095 1.758,-0.421 1.328,-0.826 0.787,-1.118 0.244,-1.412 -0.368,-1.559 -1.05,-1.559 c -0.679,0 -1.292,0.147 -1.838,0.441"
       style="fill:#a3c9e0;fill-opacity:1;fill-rule:nonzero;stroke:none"
       transform="matrix(1.3333333,0,0,-1.3333333,417.43507,64.196133)"
       clip-path="url(#clipPath81)" />
    <path
       id="path82"
       d="m 0,0 c 0.216,-0.279 0.322,-0.602 0.322,-0.969 0,-0.398 -0.132,-0.747 -0.392,-1.04 -0.261,-0.292 -0.617,-0.516 -1.063,-0.673 -0.446,-0.157 -0.934,-0.236 -1.466,-0.236 -0.45,0 -0.896,0.057 -1.341,0.17 -0.449,0.113 -0.872,0.285 -1.271,0.515 l 0.468,1.085 c 0.289,-0.174 0.605,-0.308 0.951,-0.396 0.346,-0.092 0.685,-0.137 1.016,-0.137 0.448,0 0.822,0.082 1.118,0.244 0.298,0.162 0.444,0.389 0.444,0.683 0,0.244 -0.101,0.428 -0.304,0.552 -0.202,0.125 -0.477,0.187 -0.829,0.187 H -3.946 V 1.13 h 1.487 c 0.307,0 0.545,0.061 0.718,0.185 0.172,0.125 0.257,0.296 0.257,0.515 0,0.257 -0.123,0.456 -0.37,0.6 C -2.1,2.574 -2.417,2.644 -2.805,2.644 -3.09,2.644 -3.388,2.605 -3.693,2.529 -3.999,2.45 -4.29,2.333 -4.564,2.176 l -0.458,1.18 c 0.692,0.357 1.442,0.535 2.246,0.535 0.511,0 0.984,-0.076 1.414,-0.224 C -0.931,3.516 -0.589,3.297 -0.331,3.01 -0.077,2.723 0.052,2.39 0.052,2.009 0.052,1.696 -0.033,1.419 -0.202,1.175 -0.369,0.933 -0.602,0.746 -0.895,0.613 -0.514,0.483 -0.216,0.279 0,0"
       style="fill:#a3c9e0;fill-opacity:1;fill-rule:nonzero;stroke:none"
       transform="matrix(1.3333333,0,0,-1.3333333,428.29053,62.384933)"
       clip-path="url(#clipPath83)" />
    <path
       id="path84"
       d="m 0,0 h -1.049 v -2.641 h -1.508 v 6.555 h 1.508 V 1.263 H 0.039 L 1.76,3.914 H 3.363 L 1.217,0.749 3.428,-2.641 H 1.705 Z"
       style="fill:#a3c9e0;fill-opacity:1;fill-rule:nonzero;stroke:none"
       transform="matrix(1.3333333,0,0,-1.3333333,433.702,62.603067)"
       clip-path="url(#clipPath85)" />
    <path
       id="path86"
       d="M 0,0 -3.127,-4.268 V 0 h -1.51 v -6.554 h 1.433 l 3.129,4.26 v -4.26 H 1.42 L 1.42,0 Z"
       style="fill:#a3c9e0;fill-opacity:1;fill-rule:nonzero;stroke:none"
       transform="matrix(1.3333333,0,0,-1.3333333,445.4012,57.384267)"
       clip-path="url(#clipPath87)" />
    <path
       id="path88"
       d="m 107.733,26.442 h 227.74 v 1.128 h -227.74 z"
       style="fill:#1ca670;fill-opacity:1;fill-rule:nonzero;stroke:none"
       transform="matrix(1.3333333,0,0,-1.3333333,0,87.694)"
       clip-path="url(#clipPath89)" />
    <path
       id="path90"
       d="m 0,0 9.352,-24.87 c 0.117,-0.325 0.424,-0.545 0.772,-0.545 h 20.673 c 0.829,0 1.132,1.092 0.421,1.519 l -1.634,0.987 c -6.573,3.964 -11.57,10.084 -14.139,17.317 L 12.1,3.578 C 11.954,3.989 11.518,4.196 11.095,4.089 7.592,3.206 4.557,2.352 0.461,1.033 0.045,0.899 -0.146,0.411 0,0"
       style="fill:#26338a;fill-opacity:1;fill-rule:nonzero;stroke:none"
       transform="matrix(1.3333333,0,0,-1.3333333,90.949467,53.809467)"
       clip-path="url(#clipPath91)" />
    <path
       id="path92"
       d="m 0,0 16.351,26.996 c 0.36,0.583 1.236,0.489 1.466,-0.158 L 25.11,8.898 c 0.141,-0.398 0.561,-0.605 0.973,-0.517 4.516,0.966 6.346,1.464 9.9,2.203 0.497,0.102 0.798,0.6 0.627,1.076 l -2.38,7.138 c -2.389,6.728 0.848,14.156 7.401,16.985 0.815,0.353 0.564,1.569 -0.324,1.569 H 27.636 14.448 13.33 c -8.437,0 -16.274,-4.369 -20.712,-11.546 l -25.655,-41.512 c -0.454,-0.737 0.395,-1.585 1.127,-1.125 9.2,5.754 16.328,10.52 31.503,16.497 C -0.24,-0.269 -0.095,-0.154 0,0"
       style="fill:#26338a;fill-opacity:1;fill-rule:nonzero;stroke:none"
       transform="matrix(1.3333333,0,0,-1.3333333,52.929867,49.802933)"
       clip-path="url(#clipPath93)" />
    <path
       id="path94"
       d="m 0,0 c 0.108,0.002 0.112,0.161 0.004,0.169 1.814,-0.13 -20.904,0.812 -49.786,-8.604 -27.227,-8.876 -48.954,-25.275 -49.895,-27.012 -0.354,-0.655 0.118,-1.45 0.864,-1.45 h 7.007 c 0.264,0 0.517,0.11 0.696,0.304 C -63.035,-6.215 -11.043,-0.194 0,0"
       style="fill:#1ca670;fill-opacity:1;fill-rule:nonzero;stroke:none"
       transform="matrix(1.3333333,0,0,-1.3333333,133.06267,38.4976)"
       clip-path="url(#clipPath95)" />
    <path
       id="path96"
       d="m 0,0 h 9.086 c 0.692,0 1.346,0.33 1.746,0.891 18.911,26.557 55.387,33.4 77.232,35.773 0.087,0.008 0.073,0.142 -0.015,0.137 C 79.091,36.241 27.109,31.013 -0.212,0.47 -0.373,0.289 -0.242,0 0,0"
       style="fill:#1ca670;fill-opacity:1;fill-rule:nonzero;stroke:none"
       transform="matrix(1.3333333,0,0,-1.3333333,15.705333,87.6948)"
       clip-path="url(#clipPath97)" />
  </g>
</svg>
