<?xml version="1.0" encoding="UTF-8" standalone="no"?>
<!-- Created with Inkscape (http://www.inkscape.org/) -->

<svg
   version="1.1"
   id="svg1"
   width="236.45866"
   height="192.56667"
   viewBox="0 0 236.45866 192.56667"
   sodipodi:docname="Logo.ai"
   xmlns:inkscape="http://www.inkscape.org/namespaces/inkscape"
   xmlns:sodipodi="http://sodipodi.sourceforge.net/DTD/sodipodi-0.dtd"
   xmlns="http://www.w3.org/2000/svg"
   xmlns:svg="http://www.w3.org/2000/svg">
  <defs
     id="defs1">
    <clipPath
       clipPathUnits="userSpaceOnUse"
       id="clipPath3">
      <path
         d="M 0,144.425 H 177.344 V 0 H 0 Z"
         transform="translate(-120.1642,-73.558802)"
         id="path3" />
    </clipPath>
    <clipPath
       clipPathUnits="userSpaceOnUse"
       id="clipPath5">
      <path
         d="M 0,144.425 H 177.344 V 0 H 0 Z"
         transform="translate(-70.095402,-78.835702)"
         id="path5" />
    </clipPath>
    <clipPath
       clipPathUnits="userSpaceOnUse"
       id="clipPath7">
      <path
         d="M 0,144.425 H 177.344 V 0 H 0 Z"
         transform="translate(-175.62711,-93.723802)"
         id="path7" />
    </clipPath>
    <clipPath
       clipPathUnits="userSpaceOnUse"
       id="clipPath9">
      <path
         d="M 0,144.425 H 177.344 V 0 H 0 Z"
         transform="translate(-21.071001,-28.932801)"
         id="path9" />
    </clipPath>
    <clipPath
       clipPathUnits="userSpaceOnUse"
       id="clipPath11">
      <path
         d="M 0,144.425 H 177.344 V 0 H 0 Z"
         transform="translate(-66.518702,-32.915301)"
         id="path11" />
    </clipPath>
    <clipPath
       clipPathUnits="userSpaceOnUse"
       id="clipPath13">
      <path
         d="M 0,144.425 H 177.344 V 0 H 0 Z"
         transform="translate(-75.474302,-47.516301)"
         id="path13" />
    </clipPath>
    <clipPath
       clipPathUnits="userSpaceOnUse"
       id="clipPath15">
      <path
         d="M 0,144.425 H 177.344 V 0 H 0 Z"
         transform="translate(-105.3835,-31.869801)"
         id="path15" />
    </clipPath>
    <clipPath
       clipPathUnits="userSpaceOnUse"
       id="clipPath17">
      <path
         d="M 0,144.425 H 177.344 V 0 H 0 Z"
         transform="translate(-120.17691,-29.153503)"
         id="path17" />
    </clipPath>
    <clipPath
       clipPathUnits="userSpaceOnUse"
       id="clipPath19">
      <path
         d="M 0,144.425 H 177.344 V 0 H 0 Z"
         transform="translate(-6.6618002,-18.496798)"
         id="path19" />
    </clipPath>
    <clipPath
       clipPathUnits="userSpaceOnUse"
       id="clipPath21">
      <path
         d="M 0,144.425 H 177.344 V 0 H 0 Z"
         transform="translate(-36.703301,-0.38249751)"
         id="path21" />
    </clipPath>
    <clipPath
       clipPathUnits="userSpaceOnUse"
       id="clipPath23">
      <path
         d="M 0,144.425 H 177.344 V 0 H 0 Z"
         transform="translate(-60.047002,-5.1662001)"
         id="path23" />
    </clipPath>
    <clipPath
       clipPathUnits="userSpaceOnUse"
       id="clipPath25">
      <path
         d="M 0,144.425 H 177.344 V 0 H 0 Z"
         transform="translate(-90.5695,-22.225303)"
         id="path25" />
    </clipPath>
    <clipPath
       clipPathUnits="userSpaceOnUse"
       id="clipPath27">
      <path
         d="M 0,144.425 H 177.344 V 0 H 0 Z"
         transform="translate(-98.079805,-0.71750002)"
         id="path27" />
    </clipPath>
    <clipPath
       clipPathUnits="userSpaceOnUse"
       id="clipPath29">
      <path
         d="M 0,144.425 H 177.344 V 0 H 0 Z"
         transform="translate(-121.37571,-18.079303)"
         id="path29" />
    </clipPath>
    <clipPath
       clipPathUnits="userSpaceOnUse"
       id="clipPath31">
      <path
         d="M 0,144.425 H 177.344 V 0 H 0 Z"
         transform="translate(-153.8727,-4.0471026)"
         id="path31" />
    </clipPath>
    <clipPath
       clipPathUnits="userSpaceOnUse"
       id="clipPath33">
      <path
         d="M 0,144.425 H 177.344 V 0 H 0 Z"
         transform="translate(-172.4616,-0.38249751)"
         id="path33" />
    </clipPath>
  </defs>
  <sodipodi:namedview
     id="namedview1"
     pagecolor="#ffffff"
     bordercolor="#000000"
     borderopacity="0.25"
     inkscape:showpageshadow="2"
     inkscape:pageopacity="0.0"
     inkscape:pagecheckerboard="0"
     inkscape:deskcolor="#d1d1d1">
    <inkscape:page
       x="0"
       y="0"
       inkscape:label="1"
       id="page1"
       width="236.45866"
       height="192.56667"
       margin="0"
       bleed="0" />
  </sodipodi:namedview>
  <g
     id="layer-MC0"
     inkscape:groupmode="layer"
     inkscape:label="Layer 3"
     style="display:none">
    <path
       id="path1"
       d="M 0,0 H 177.344 V 144.425 H 0 Z"
       style="fill:#ffffff;fill-opacity:1;fill-rule:nonzero;stroke:none"
       transform="matrix(1.3333333,0,0,-1.3333333,0,192.56667)" />
  </g>
  <g
     id="layer-MC1"
     inkscape:groupmode="layer"
     inkscape:label="Layer 1">
    <path
       id="path2"
       d="m 0,0 16.423,-43.67 c 0.203,-0.574 0.746,-0.955 1.354,-0.955 h 36.3 c 1.456,0 1.989,1.914 0.743,2.666 l -2.871,1.731 C 40.406,-33.268 31.631,-22.521 27.121,-9.82 L 21.247,6.282 C 20.991,7.004 20.224,7.369 19.483,7.182 13.331,5.626 8.002,4.13 0.809,1.814 0.08,1.579 -0.257,0.722 0,0"
       style="fill:#253289;fill-opacity:1;fill-rule:nonzero;stroke:none"
       transform="matrix(1.3333333,0,0,-1.3333333,160.21893,94.488267)"
       clip-path="url(#clipPath3)" />
    <path
       id="path4"
       d="m 0,0 28.709,47.402 c 0.635,1.024 2.173,0.86 2.577,-0.276 L 44.091,15.625 c 0.249,-0.7 0.986,-1.064 1.711,-0.909 7.928,1.697 11.14,2.572 17.384,3.867 0.871,0.181 1.399,1.056 1.101,1.892 l -4.181,12.534 c -4.195,11.813 1.487,24.855 12.997,29.825 1.432,0.618 0.989,2.755 -0.57,2.755 H 48.525 25.368 23.407 c -14.817,0 -28.578,-7.672 -36.369,-20.276 l -45.05,-72.893 c -0.799,-1.293 0.692,-2.781 1.979,-1.976 16.153,10.105 28.67,18.475 55.316,28.968 C -0.423,-0.471 -0.167,-0.271 0,0"
       style="fill:#253289;fill-opacity:1;fill-rule:nonzero;stroke:none"
       transform="matrix(1.3333333,0,0,-1.3333333,93.460533,87.4524)"
       clip-path="url(#clipPath5)" />
    <path
       id="path6"
       d="M 0,0 C 0.189,0.003 0.196,0.281 0.007,0.296 3.193,0.068 -36.7,1.722 -87.417,-14.811 c -47.809,-15.585 -85.958,-44.381 -87.612,-47.433 -0.622,-1.151 0.21,-2.547 1.518,-2.547 h 12.303 c 0.465,0 0.908,0.196 1.222,0.536 C -110.689,-10.914 -19.391,-0.341 0,0"
       style="fill:#1ca56f;fill-opacity:1;fill-rule:nonzero;stroke:none"
       transform="matrix(1.3333333,0,0,-1.3333333,234.16947,67.6016)"
       clip-path="url(#clipPath7)" />
    <path
       id="path8"
       d="m 0,0 h 15.956 c 1.213,0 2.361,0.578 3.065,1.566 33.206,46.633 97.259,58.646 135.615,62.813 0.154,0.017 0.128,0.249 -0.026,0.241 C 138.879,63.637 47.604,54.458 -0.372,0.826 -0.656,0.508 -0.427,0 0,0"
       style="fill:#1ca56f;fill-opacity:1;fill-rule:nonzero;stroke:none"
       transform="matrix(1.3333333,0,0,-1.3333333,28.094667,153.9896)"
       clip-path="url(#clipPath9)" />
    <path
       id="path10"
       d="m 0,0 h -7.94 c -0.207,0 -0.395,-0.125 -0.476,-0.317 l -1.383,-3.347 c -0.078,-0.193 -0.266,-0.319 -0.475,-0.319 h -3.27 c -0.373,0 -0.622,0.385 -0.47,0.725 l 7.825,17.554 c 0.083,0.185 0.266,0.306 0.469,0.306 h 3.58 c 0.203,0 0.388,-0.121 0.471,-0.306 L 6.179,-3.258 C 6.331,-3.598 6.083,-3.983 5.71,-3.983 H 2.334 c -0.209,0 -0.395,0.126 -0.475,0.319 L 0.476,-0.317 C 0.396,-0.125 0.208,0 0,0 m -1.304,3.977 -2.178,5.255 c -0.174,0.424 -0.774,0.424 -0.951,0 L -6.609,3.977 C -6.749,3.638 -6.5,3.265 -6.134,3.265 h 4.355 c 0.365,0 0.615,0.373 0.475,0.712"
       style="fill:#253289;fill-opacity:1;fill-rule:nonzero;stroke:none"
       transform="matrix(1.3333333,0,0,-1.3333333,88.6916,148.6796)"
       clip-path="url(#clipPath11)" />
    <path
       id="path12"
       d="m 0,0 h 3.271 c 0.285,0 0.515,-0.23 0.515,-0.514 v -14.05 c 0,-0.285 0.23,-0.515 0.514,-0.515 h 8.289 c 0.285,0 0.516,-0.231 0.516,-0.514 v -2.476 c 0,-0.284 -0.231,-0.514 -0.516,-0.514 H 0 c -0.284,0 -0.514,0.23 -0.514,0.514 V -0.514 C -0.514,-0.23 -0.284,0 0,0"
       style="fill:#253289;fill-opacity:1;fill-rule:nonzero;stroke:none"
       transform="matrix(1.3333333,0,0,-1.3333333,100.6324,129.2116)"
       clip-path="url(#clipPath13)" />
    <path
       id="path14"
       d="m 0,0 v -2.422 c 0,-0.284 -0.23,-0.516 -0.515,-0.516 h -13.359 c -0.284,0 -0.516,0.232 -0.516,0.516 v 17.555 c 0,0.284 0.232,0.514 0.516,0.514 H -0.86 c 0.284,0 0.516,-0.23 0.516,-0.514 v -2.424 c 0,-0.284 -0.232,-0.514 -0.516,-0.514 h -8.741 c -0.284,0 -0.514,-0.23 -0.514,-0.514 V 8.674 c 0,-0.284 0.23,-0.514 0.514,-0.514 H -2 c 0.282,0 0.514,-0.23 0.514,-0.515 V 5.329 C -1.486,5.046 -1.718,4.814 -2,4.814 h -7.601 c -0.284,0 -0.514,-0.23 -0.514,-0.514 V 1.029 c 0,-0.285 0.23,-0.515 0.514,-0.515 h 9.086 C -0.23,0.514 0,0.284 0,0"
       style="fill:#253289;fill-opacity:1;fill-rule:nonzero;stroke:none"
       transform="matrix(1.3333333,0,0,-1.3333333,140.51133,150.0736)"
       clip-path="url(#clipPath15)" />
    <path
       id="path16"
       d="M 0,0 -3.908,5.618 C -4.112,5.915 -4.552,5.911 -4.754,5.613 l -3.833,-5.61 c -0.096,-0.14 -0.254,-0.224 -0.424,-0.224 h -3.656 c -0.422,0 -0.664,0.477 -0.417,0.818 l 6.063,8.333 c 0.13,0.179 0.132,0.423 0.003,0.602 l -5.732,8.017 c -0.244,0.341 0,0.813 0.417,0.813 h 3.62 c 0.165,0 0.321,-0.079 0.419,-0.216 l 3.696,-5.212 c 0.206,-0.29 0.639,-0.289 0.842,0.003 l 3.624,5.206 c 0.096,0.138 0.252,0.219 0.421,0.219 h 3.372 c 0.42,0 0.662,-0.475 0.417,-0.815 L -1.594,9.691 c -0.13,-0.18 -0.13,-0.422 0,-0.603 L 4.53,0.594 C 4.775,0.254 4.532,-0.221 4.112,-0.221 H 0.422 C 0.254,-0.221 0.096,-0.138 0,0"
       style="fill:#253289;fill-opacity:1;fill-rule:nonzero;stroke:none"
       transform="matrix(1.3333333,0,0,-1.3333333,160.23587,153.69533)"
       clip-path="url(#clipPath17)" />
    <path
       id="path18"
       d="m 0,0 h -6.181 c -0.266,0 -0.481,0.215 -0.481,0.481 v 3.248 c 0,0.264 0.215,0.481 0.481,0.481 H 12.31 c 0.266,0 0.481,-0.217 0.481,-0.481 V 0.481 C 12.791,0.215 12.576,0 12.31,0 H 6.129 C 5.863,0 5.648,-0.215 5.648,-0.481 v -17.152 c 0,-0.266 -0.215,-0.481 -0.481,-0.481 H 0.962 c -0.266,0 -0.481,0.215 -0.481,0.481 V -0.481 C 0.481,-0.215 0.266,0 0,0"
       style="fill:#253289;fill-opacity:1;fill-rule:nonzero;stroke:none"
       transform="matrix(1.3333333,0,0,-1.3333333,8.8824,167.90427)"
       clip-path="url(#clipPath19)" />
    <path
       id="path20"
       d="m 0,0 c -0.158,0 -0.305,0.078 -0.396,0.208 l -4.162,6.01 h -0.255 -4.015 c -0.266,0 -0.481,-0.215 -0.481,-0.48 V 0.481 C -9.309,0.215 -9.525,0 -9.79,0 h -4.204 c -0.266,0 -0.482,0.215 -0.482,0.481 v 21.362 c 0,0.266 0.216,0.481 0.482,0.481 h 9.181 c 1.978,0 3.694,-0.329 5.151,-0.988 1.455,-0.661 2.577,-1.596 3.364,-2.807 0.786,-1.212 1.18,-2.647 1.18,-4.306 0,-1.658 -0.398,-3.088 -1.195,-4.288 C 2.986,8.877 2.024,8.04 0.806,7.418 0.54,7.283 0.445,6.952 0.615,6.708 L 4.768,0.756 C 4.991,0.437 4.764,0 4.374,0 Z m -1.56,17.109 c -0.808,0.669 -1.988,1.005 -3.541,1.005 h -3.727 c -0.266,0 -0.481,-0.215 -0.481,-0.481 v -6.819 c 0,-0.266 0.215,-0.481 0.481,-0.481 h 3.727 c 1.553,0 2.733,0.34 3.541,1.02 0.808,0.68 1.212,1.636 1.212,2.87 0,1.254 -0.404,2.217 -1.212,2.886"
       style="fill:#253289;fill-opacity:1;fill-rule:nonzero;stroke:none"
       transform="matrix(1.3333333,0,0,-1.3333333,48.937733,192.05667)"
       clip-path="url(#clipPath21)" />
    <path
       id="path22"
       d="m 0,0 h -9.721 c -0.194,0 -0.37,-0.117 -0.446,-0.298 l -1.73,-4.189 c -0.074,-0.179 -0.25,-0.296 -0.444,-0.296 h -4.231 c -0.349,0 -0.582,0.358 -0.44,0.677 l 9.52,21.361 c 0.078,0.173 0.25,0.285 0.441,0.285 h 4.477 c 0.19,0 0.363,-0.112 0.44,-0.285 L 7.417,-4.106 C 7.56,-4.424 7.327,-4.783 6.978,-4.783 H 2.62 c -0.194,0 -0.37,0.117 -0.444,0.296 L 0.445,-0.298 C 0.37,-0.117 0.195,0 0,0 m -1.581,4.587 -2.818,6.809 c -0.164,0.396 -0.726,0.396 -0.89,0 L -8.109,4.587 C -8.24,4.271 -8.008,3.923 -7.665,3.923 h 5.641 c 0.342,0 0.576,0.348 0.443,0.664"
       style="fill:#253289;fill-opacity:1;fill-rule:nonzero;stroke:none"
       transform="matrix(1.3333333,0,0,-1.3333333,80.062667,185.6784)"
       clip-path="url(#clipPath23)" />
    <path
       id="path24"
       d="m 0,0 v -21.361 c 0,-0.267 -0.215,-0.482 -0.481,-0.482 h -3.534 c -0.142,0 -0.279,0.065 -0.371,0.176 l -10.132,12.338 c -0.287,0.351 -0.854,0.148 -0.854,-0.305 v -11.727 c 0,-0.267 -0.215,-0.482 -0.482,-0.482 h -4.139 c -0.266,0 -0.481,0.215 -0.481,0.482 V 0 c 0,0.266 0.215,0.481 0.481,0.481 h 3.565 c 0.143,0 0.28,-0.064 0.372,-0.176 L -5.957,-12.03 c 0.287,-0.35 0.853,-0.147 0.853,0.305 V 0 c 0,0.266 0.217,0.481 0.482,0.481 h 4.141 C -0.215,0.481 0,0.266 0,0"
       style="fill:#253289;fill-opacity:1;fill-rule:nonzero;stroke:none"
       transform="matrix(1.3333333,0,0,-1.3333333,120.75933,162.93293)"
       clip-path="url(#clipPath25)" />
    <path
       id="path26"
       d="m 0,0 c -1.479,0.429 -2.695,0.975 -3.652,1.635 -0.19,0.129 -0.251,0.382 -0.157,0.591 l 1.356,3.005 C -2.33,5.505 -1.995,5.592 -1.742,5.43 -0.891,4.878 0.089,4.422 1.196,4.065 2.513,3.64 3.833,3.428 5.15,3.428 c 1.468,0 2.553,0.218 3.253,0.654 0.701,0.435 1.053,1.015 1.053,1.737 0,0.533 -0.207,0.973 -0.623,1.324 C 8.42,7.494 7.887,7.776 7.239,7.988 6.591,8.2 5.714,8.435 4.608,8.691 2.907,9.094 1.515,9.499 0.43,9.901 c -1.084,0.405 -2.014,1.054 -2.79,1.947 -0.776,0.892 -1.164,2.083 -1.164,3.57 0,1.297 0.35,2.473 1.053,3.525 0.7,1.053 1.758,1.888 3.173,2.504 1.413,0.617 3.141,0.925 5.182,0.925 1.424,0 2.817,-0.171 4.179,-0.511 1.203,-0.301 2.275,-0.719 3.214,-1.253 0.207,-0.119 0.29,-0.378 0.2,-0.6 L 12.24,16.966 c -0.107,-0.264 -0.419,-0.37 -0.672,-0.237 -1.906,0.997 -3.812,1.496 -5.715,1.496 -1.448,0 -2.516,-0.234 -3.206,-0.701 -0.692,-0.467 -1.036,-1.084 -1.036,-1.85 0,-0.765 0.398,-1.334 1.196,-1.705 0.797,-0.373 2.013,-0.74 3.651,-1.101 1.7,-0.405 3.093,-0.808 4.177,-1.213 1.085,-0.403 2.014,-1.041 2.791,-1.913 C 14.202,8.871 14.59,7.69 14.59,6.203 14.59,4.927 14.233,3.763 13.522,2.71 12.809,1.658 11.741,0.824 10.316,0.208 8.892,-0.409 7.16,-0.717 5.118,-0.717 3.354,-0.717 1.647,-0.479 0,0"
       style="fill:#253289;fill-opacity:1;fill-rule:nonzero;stroke:none"
       transform="matrix(1.3333333,0,0,-1.3333333,130.77307,191.61)"
       clip-path="url(#clipPath27)" />
    <path
       id="path28"
       d="m 0,0 v -4.937 c 0,-0.266 0.215,-0.481 0.481,-0.481 h 9.371 c 0.265,0 0.481,-0.216 0.481,-0.481 v -3.184 c 0,-0.267 -0.216,-0.482 -0.481,-0.482 H 0.481 C 0.215,-9.565 0,-9.78 0,-10.046 v -7.17 c 0,-0.265 -0.215,-0.481 -0.481,-0.481 h -4.205 c -0.266,0 -0.481,0.216 -0.481,0.481 V 4.145 c 0,0.267 0.215,0.481 0.481,0.481 h 15.908 c 0.266,0 0.482,-0.214 0.482,-0.481 V 0.962 c 0,-0.266 -0.216,-0.481 -0.482,-0.481 H 0.481 C 0.215,0.481 0,0.266 0,0"
       style="fill:#253289;fill-opacity:1;fill-rule:nonzero;stroke:none"
       transform="matrix(1.3333333,0,0,-1.3333333,161.83427,168.46093)"
       clip-path="url(#clipPath29)" />
    <path
       id="path30"
       d="m 0,0 v -3.184 c 0,-0.265 -0.215,-0.48 -0.481,-0.48 h -16.323 c -0.266,0 -0.481,0.215 -0.481,0.48 v 21.361 c 0,0.266 0.215,0.482 0.481,0.482 h 15.908 c 0.266,0 0.481,-0.216 0.481,-0.482 v -3.182 c 0,-0.266 -0.215,-0.482 -0.481,-0.482 h -10.773 c -0.266,0 -0.481,-0.215 -0.481,-0.481 v -3.885 c 0,-0.265 0.215,-0.481 0.481,-0.481 h 9.402 c 0.265,0 0.481,-0.215 0.481,-0.482 V 6.129 c 0,-0.266 -0.216,-0.481 -0.481,-0.481 h -9.402 c -0.266,0 -0.481,-0.215 -0.481,-0.481 V 0.963 c 0,-0.266 0.215,-0.482 0.481,-0.482 H -0.481 C -0.215,0.481 0,0.267 0,0"
       style="fill:#253289;fill-opacity:1;fill-rule:nonzero;stroke:none"
       transform="matrix(1.3333333,0,0,-1.3333333,205.1636,187.17053)"
       clip-path="url(#clipPath31)" />
    <path
       id="path32"
       d="m 0,0 c -0.158,0 -0.305,0.078 -0.396,0.208 l -4.161,6.01 h -0.256 -4.015 c -0.266,0 -0.481,-0.215 -0.481,-0.48 V 0.481 C -9.309,0.215 -9.525,0 -9.79,0 h -4.204 c -0.266,0 -0.482,0.215 -0.482,0.481 v 21.362 c 0,0.266 0.216,0.481 0.482,0.481 h 9.181 c 1.978,0 3.694,-0.329 5.151,-0.988 1.455,-0.661 2.577,-1.596 3.364,-2.807 0.786,-1.212 1.18,-2.647 1.18,-4.306 0,-1.658 -0.398,-3.088 -1.195,-4.288 C 2.986,8.877 2.025,8.04 0.806,7.418 0.54,7.283 0.445,6.952 0.615,6.708 L 4.768,0.756 C 4.991,0.437 4.764,0 4.374,0 Z m -1.56,17.109 c -0.807,0.669 -1.988,1.005 -3.54,1.005 h -3.728 c -0.266,0 -0.481,-0.215 -0.481,-0.481 v -6.819 c 0,-0.266 0.215,-0.481 0.481,-0.481 H -5.1 c 1.552,0 2.733,0.34 3.54,1.02 0.808,0.68 1.213,1.636 1.213,2.87 0,1.254 -0.405,2.217 -1.213,2.886"
       style="fill:#253289;fill-opacity:1;fill-rule:nonzero;stroke:none"
       transform="matrix(1.3333333,0,0,-1.3333333,229.9488,192.05667)"
       clip-path="url(#clipPath33)" />
  </g>
</svg>
